<?xml version="1.0" encoding="utf-8"?>
<svg xmlns="http://www.w3.org/2000/svg" width="6.82666in" height="6.82666in" style="shape-rendering:geometricPrecision; text-rendering:geometricPrecision; image-rendering:optimizeQuality; fill-rule:evenodd; clip-rule:evenodd" viewBox="0 0 6.82666 6.82666" xmlns:bx="https://boxy-svg.com"><defs><style type="text/css">
   
    .fil2 {fill:none}
    .fil0 {fill:#424242}
    .fil1 {fill:#FFFFFE;fill-rule:nonzero}
   
  </style></defs><rect class="fil0" width="6.82666" height="6.82666" style="fill: rgba(255, 255, 255, 0); fill-opacity: 0;"/><g id="Layer_x0020_1"><g id="_393673368"><path id="_393674496" class="fil1" d="M3.71661 1.09583l0.405831 0c0.0578307,0 0.104717,0.0468858 0.104717,0.104717l0 0.405831c0,0.0578307 -0.0468858,0.104717 -0.104717,0.104717l-0.405831 0c-0.0578307,0 -0.104717,-0.0468858 -0.104717,-0.104717l0 -0.405831c0,-0.0578307 0.0468858,-0.104717 0.104717,-0.104717z" style="fill: rgb(68, 68, 67);"/><path id="_393674184" class="fil1" d="M2.91715 2.65554l0 -0.429862c0,-0.0578307 0.0468858,-0.104717 0.104717,-0.104717l0.540724 0c0.0578307,0 0.104717,0.0468858 0.104717,0.104717l0 0.429862 -0.750157 0z" style="fill: rgb(68, 68, 67);"/><path id="_393674472" class="fil1" d="M3.82132 0.958047l0 1.0003c0,0.0578307 -0.0468858,0.104717 -0.104717,0.104717l-0.84874 0c-0.0578307,0 -0.104717,-0.0468858 -0.104717,-0.104717 0,-0.267142 0.113047,-0.553323 0.293378,-0.76585 0.170807,-0.201315 0.402913,-0.339161 0.660079,-0.339161 0.0578307,0 0.104717,0.0468858 0.104717,0.104717z" style="fill: rgb(68, 68, 67);"/><path id="_393674112" class="fil1" d="M4.12244 1.29874c-0.0578307,0 -0.104717,0.0468858 -0.104717,0.104717 0,0.0578307 0.0468858,0.104717 0.104717,0.104717l0.263335 0c0.0578307,0 0.104717,-0.0468858 0.104717,-0.104717 0,-0.0578307 -0.0468858,-0.104717 -0.104717,-0.104717l-0.263335 0z" style="fill: rgb(68, 68, 67);"/><path id="_393673992" class="fil1" d="M3.71691 1.85976c-0.0544409,-0.018748 -0.11378,0.010189 -0.132528,0.0646299 -0.018748,0.0544409 0.010189,0.11378 0.0646299,0.132528 0.208374,0.0719764 0.383638,0.196256 0.519071,0.34048 0.156169,0.166307 0.257929,0.357224 0.295409,0.523524 0.0126496,0.056248 0.0685079,0.0915945 0.12476,0.0789449 0.056252,-0.0126496 0.0915945,-0.0685118 0.0789449,-0.12476 -0.0450945,-0.200094 -0.164724,-0.426815 -0.346953,-0.620874 -0.156343,-0.1665 -0.359874,-0.310382 -0.603335,-0.394472z" style="fill: rgb(68, 68, 67);"/><path id="_393673416" class="fil1" d="M2.67704 2.76025l0.00216535 0 1.22936 0c0.039874,0 0.0745394,0.0222913 0.0922283,0.0550906l0.409583 0.630705 0.000291339 -0.000173228c0.011563,0.017811 0.0170157,0.0378268 0.0168937,0.0575827l0 2.28939c0,0.0494488 -0.0204409,0.094626 -0.0533583,0.127535 -0.0326693,0.0326575 -0.0776811,0.0529449 -0.127134,0.0529449l-1.90969 0c-0.0497165,0 -0.094878,-0.0202795 -0.127543,-0.0529409l-7.87402e-006 7.87402e-006c-0.00282677,-0.00283071 -0.00545669,-0.0057874 -0.0078937,-0.00884252 -0.0279882,-0.0317756 -0.0450394,-0.0733701 -0.0450394,-0.118705l0 -2.28757 0 -0.0023622c0,-0.0240433 0.00811024,-0.0461929 0.0217362,-0.0638701l0.409728 -0.630925 -0.000283465 -0.000185039c0.0202598,-0.0311969 0.0543228,-0.0480315 0.0889567,-0.047685z" style="fill: rgb(68, 68, 67);"/></g><rect class="fil2" width="6.82666" height="6.82666"/></g></svg>